<svg xmlns="http://www.w3.org/2000/svg" xmlns:xlink="http://www.w3.org/1999/xlink" width="500" zoomAndPan="magnify" viewBox="0 0 375 374.999991" height="500" preserveAspectRatio="xMidYMid meet" version="1.0"><defs><clipPath id="d4a6836b39"><path d="M 162.441406 86.296875 L 374.691406 86.296875 L 374.691406 288.796875 L 162.441406 288.796875 Z M 162.441406 86.296875 " clip-rule="nonzero"/></clipPath><clipPath id="dfb0df5252"><path d="M 19 86.296875 L 201 86.296875 L 201 207 L 19 207 Z M 19 86.296875 " clip-rule="nonzero"/></clipPath><clipPath id="5f7f204788"><path d="M 0 168 L 182 168 L 182 288.796875 L 0 288.796875 Z M 0 168 " clip-rule="nonzero"/></clipPath></defs><g clip-path="url(#d4a6836b39)"><path fill="#2e475d" d="M 371.03125 153.984375 C 359.546875 111.617188 324.808594 86.320312 278.097656 86.320312 L 162.441406 86.320312 L 164.722656 91.5625 C 174.523438 114.070312 196.703125 128.625 221.222656 128.632812 L 252.714844 128.632812 L 252.972656 128.625 C 254.171875 128.539062 258.59375 128.269531 265.226562 128.269531 C 271.609375 128.269531 278.109375 128.523438 284.527344 129.015625 L 285.15625 129.0625 C 309.730469 131 343.394531 137.4375 364.199219 157.058594 L 364.464844 157.308594 C 364.574219 157.410156 364.683594 157.511719 364.785156 157.617188 L 374.6875 167.496094 Z M 374.199219 202.808594 L 374.171875 203.21875 C 367.925781 256.003906 330.714844 288.792969 277.070312 288.792969 L 203.28125 288.792969 L 203.28125 188.855469 L 207.015625 188.855469 C 228.617188 188.855469 246.191406 206.460938 246.191406 228.105469 L 246.191406 245.800781 L 278.871094 245.800781 C 294.964844 245.800781 308.519531 240.503906 318.070312 230.484375 C 327.789062 220.285156 332.925781 205.546875 332.925781 187.863281 L 332.925781 187.253906 C 332.925781 173.5625 329.921875 161.753906 323.992188 152.15625 L 318.457031 143.195312 L 328.394531 146.648438 C 340.71875 150.933594 350.71875 156.644531 358.113281 163.621094 C 368.914062 173.8125 374.324219 186.996094 374.199219 202.808594 " fill-opacity="1" fill-rule="nonzero"/></g><g clip-path="url(#dfb0df5252)"><path fill="#2e475d" d="M 201 86.453125 L 139.003906 148.09375 L 79.871094 206.871094 L 79.394531 206.871094 C 65.164062 206.871094 52.105469 201.96875 41.824219 193.726562 C 28.027344 182.710938 19.175781 165.703125 19.175781 146.660156 C 19.175781 130.046875 25.902344 114.996094 36.832031 104.0625 C 47.722656 93.175781 62.777344 86.453125 79.394531 86.453125 Z M 201 86.453125 " fill-opacity="1" fill-rule="nonzero"/></g><g clip-path="url(#5f7f204788)"><path fill="#2e475d" d="M 181.476562 228.386719 C 181.476562 245.003906 174.753906 260.054688 163.820312 270.988281 C 152.929688 281.875 137.875 288.640625 121.214844 288.640625 L 0 288.640625 L 61.996094 227 L 121.128906 168.222656 L 121.304688 168.222656 C 135.53125 168.222656 148.589844 173.121094 158.875 181.363281 C 172.671875 192.339844 181.476562 209.34375 181.476562 228.386719 Z M 181.476562 228.386719 " fill-opacity="1" fill-rule="nonzero"/></g></svg>